<svg width="130" height="130" viewBox="0 0 130 130" fill="none" xmlns="http://www.w3.org/2000/svg">
<path d="M65 44.6875C65 40.3777 66.7121 36.2445 69.7595 33.197C72.807 30.1495 76.9402 28.4375 81.25 28.4375H113.75C114.827 28.4375 115.861 28.8655 116.623 29.6274C117.384 30.3892 117.812 31.4226 117.812 32.5V97.5C117.812 98.5774 117.384 99.6108 116.623 100.373C115.861 101.134 114.827 101.562 113.75 101.562H81.25C76.9402 101.562 72.807 103.275 69.7595 106.322C66.7121 109.369 65 113.503 65 117.812" stroke="white" stroke-width="5" stroke-linecap="round" stroke-linejoin="round"/>
<path d="M12.1875 97.5C12.1875 98.5774 12.6155 99.6108 13.3774 100.373C14.1392 101.134 15.1726 101.562 16.25 101.562H48.75C53.0598 101.562 57.193 103.275 60.2405 106.322C63.288 109.369 65 113.503 65 117.812V44.6875C65 40.3777 63.288 36.2445 60.2405 33.197C57.193 30.1495 53.0598 28.4375 48.75 28.4375H16.25C15.1726 28.4375 14.1392 28.8655 13.3774 29.6274C12.6155 30.3892 12.1875 31.4226 12.1875 32.5V97.5Z" stroke="white" stroke-width="5" stroke-linecap="round" stroke-linejoin="round"/>
</svg>
