<svg width="130" height="130" viewBox="0 0 130 130" fill="none" xmlns="http://www.w3.org/2000/svg">
<path d="M22.3438 103.594C30.1965 103.594 36.5625 97.2278 36.5625 89.375C36.5625 81.5222 30.1965 75.1562 22.3438 75.1562C14.491 75.1562 8.125 81.5222 8.125 89.375C8.125 97.2278 14.491 103.594 22.3438 103.594Z" stroke="white" stroke-width="5" stroke-linecap="round" stroke-linejoin="round"/>
<path d="M101.562 20.3125L121.875 40.625L101.562 60.9375" stroke="white" stroke-width="5" stroke-linecap="round" stroke-linejoin="round"/>
<path d="M36.5625 89.375H40.625C47.0897 89.375 53.2896 86.8069 57.8608 82.2357C62.432 77.6645 65 71.4647 65 65V65C65 58.5354 67.5681 52.3355 72.1393 47.7643C76.7105 43.1931 82.9104 40.625 89.375 40.625H121.875" stroke="white" stroke-width="5" stroke-linecap="round" stroke-linejoin="round"/>
</svg>
