<svg width="115" height="19" viewBox="0 0 115 19" fill="none" xmlns="http://www.w3.org/2000/svg">
<path d="M6.25174 10.919L18.931 18V0.781566H13.121V7.86261L0.471917 0.781566V18H6.25174V10.919ZM26.5982 6.53113H33.0437L27.8994 9.40591H33.0437V6.53113H36.2514V0.781566H20.1829V18H36.2514V12.2807H26.5982V6.53113ZM53.5686 0.781566H47.1231L45.5192 3.65635L43.9154 0.781566H37.5001L42.3116 9.40591L37.5001 18H43.9154L45.5192 15.1555L47.1231 18H53.5686L48.7572 9.40591L53.5686 0.781566ZM61.2327 6.53113V18H67.6782V6.53113H74.0935V0.781566H54.8174V6.53113H61.2327ZM75.1203 18.0605C75.8465 18.0605 76.4215 17.4856 76.4215 16.7593C76.4215 16.033 75.8465 15.4581 75.1203 15.4581C74.394 15.4581 73.8191 16.033 73.8191 16.7593C73.8191 17.4856 74.394 18.0605 75.1203 18.0605ZM80.8684 0.781566V6.19826H88.9783V9.40591C88.9783 10.9795 87.5258 12.2807 85.7707 12.2807C84.6208 12.2807 83.6222 11.7663 83.0472 10.9492V9.40591H77.6608V14.0963C79.3554 16.487 82.3512 18.0605 85.7707 18.0605C91.0966 18.0605 95.4239 14.1871 95.4239 9.40591V0.781566H80.8684ZM112.217 9.37565C112.186 9.37565 112.186 9.34539 112.126 9.34539C111.369 8.8007 110.401 8.37704 109.342 8.07443C109.342 8.07443 104.712 6.77322 104.591 6.7127C104.44 6.65217 104.318 6.56139 104.228 6.47061C104.167 6.41009 104.137 6.37983 104.107 6.3193C104.076 6.28904 104.076 6.25878 104.046 6.25878C104.016 6.168 103.986 6.07722 103.986 5.98643C103.986 5.50226 104.651 5.10887 105.499 5.10887C106.316 5.10887 107.012 5.50226 107.012 5.98643C107.012 6.19826 107.012 6.50087 107.012 6.50087H114.305C114.335 6.34957 114.335 6.168 114.335 5.98643C114.335 4.86678 113.73 3.80765 112.701 2.96035C112.519 2.80904 112.307 2.62748 112.096 2.50643C112.065 2.47617 112.035 2.47617 112.035 2.44591C111.823 2.32487 111.611 2.17357 111.369 2.05252C111.339 2.05252 111.309 2.05252 111.309 2.02226C110.794 1.74991 110.219 1.53809 109.614 1.32626H109.584C109.312 1.23548 109.039 1.17496 108.767 1.08417C108.676 1.08417 108.585 1.05391 108.494 1.05391C108.283 0.993391 108.041 0.963131 107.829 0.90261C107.708 0.90261 107.617 0.872347 107.496 0.872347C107.284 0.842087 107.042 0.811826 106.8 0.781566C106.709 0.781566 106.618 0.781566 106.497 0.751304C106.164 0.751304 105.832 0.721043 105.499 0.721043C104.893 0.721043 104.288 0.751304 103.713 0.842087C103.138 0.90261 102.594 0.993391 102.049 1.1447C101.534 1.26574 101.02 1.4473 100.536 1.62887C99.5978 1.992 98.7807 2.47617 98.1453 3.05113C97.2072 3.89843 96.6625 4.89704 96.6625 5.98643C96.6625 6.168 96.6625 6.34957 96.6927 6.50087C96.8743 7.62052 97.6308 8.61913 98.7807 9.40591C98.7807 9.43617 98.811 9.43617 98.8413 9.46644C99.628 9.98087 100.566 10.4348 101.656 10.7374C101.656 10.7374 106.285 12.0386 106.406 12.0991C106.558 12.1597 106.649 12.2202 106.739 12.311C106.8 12.3715 106.86 12.432 106.891 12.4925C106.921 12.5228 106.921 12.5228 106.921 12.553C106.981 12.6438 107.012 12.7043 107.012 12.7951C107.012 13.3096 106.316 13.703 105.499 13.703C104.651 13.703 103.986 13.3096 103.986 12.7951C103.986 12.6136 103.986 12.2807 103.986 12.2807H96.6927C96.6625 12.4623 96.6625 12.6438 96.6625 12.7951C96.6625 14.1569 97.5098 15.3673 98.9018 16.3054C98.932 16.3054 98.932 16.3357 98.9623 16.3357C99.1741 16.487 99.3859 16.608 99.5978 16.729C99.628 16.7593 99.6583 16.7593 99.6886 16.7896C100.203 17.0317 100.748 17.2737 101.353 17.4553C101.383 17.4553 101.383 17.4856 101.413 17.4856C101.686 17.5461 101.958 17.6369 102.23 17.6974C102.321 17.7277 102.412 17.7277 102.473 17.7579C102.715 17.8184 102.926 17.8487 103.169 17.879C103.259 17.9092 103.38 17.9092 103.471 17.9395C103.713 17.9697 103.925 18 104.167 18C104.288 18.0303 104.379 18.0303 104.47 18.0303C104.803 18.0605 105.136 18.0605 105.499 18.0605C110.371 18.0605 114.335 15.7304 114.335 12.7951C114.335 11.4939 113.548 10.3137 112.217 9.37565Z" fill="#020F3D"/>
</svg>
