<svg width="130" height="130" viewBox="0 0 130 130" fill="none" xmlns="http://www.w3.org/2000/svg">
<path d="M47.0673 109.687H24.375C23.2976 109.687 22.2642 109.259 21.5024 108.498C20.7405 107.736 20.3125 106.702 20.3125 105.625V82.9327C20.3125 82.3992 20.4176 81.871 20.6217 81.3781C20.8259 80.8852 21.1251 80.4374 21.5024 80.0601L82.4399 19.1226C83.2017 18.3607 84.2351 17.9327 85.3125 17.9327C86.3899 17.9327 87.4233 18.3607 88.1851 19.1226L110.877 41.8149C111.639 42.5767 112.067 43.6101 112.067 44.6875C112.067 45.7649 111.639 46.7983 110.877 47.5601L49.9399 108.498C49.5626 108.875 49.1148 109.174 48.6219 109.378C48.129 109.582 47.6008 109.687 47.0673 109.687Z" stroke="white" stroke-width="5" stroke-linecap="round" stroke-linejoin="round"/>
<path d="M69.0625 32.5L97.5 60.9375" stroke="white" stroke-width="5" stroke-linecap="round" stroke-linejoin="round"/>
<path d="M81.25 97.5L101.562 77.1875L97.5 60.9375" stroke="white" stroke-width="5" stroke-linecap="round" stroke-linejoin="round"/>
<path d="M20.5706 81.5081L48.4919 109.429" stroke="white" stroke-width="5" stroke-linecap="round" stroke-linejoin="round"/>
</svg>
